<svg xmlns="http://www.w3.org/2000/svg" width="29" height="28" viewBox="0 0 29 28">
    <g fill="none" fill-rule="evenodd">
        <path d="M0 0H28V28H0z" transform="translate(.48)"/>
        <path fill="#111" d="M14 5c5.618 0 10.483 3.602 12.872 8.856.17.373.17.824 0 1.196C24.483 20.308 19.618 23.91 14 23.91c-5.618 0-10.484-3.6-12.872-8.857-.17-.372-.17-.823 0-1.196C3.515 8.602 8.381 5 14 5zm0 1C8.94 6 4.354 9.17 2.036 14.271c-.05.11-.05.257 0 .368C4.355 19.74 8.94 22.91 14 22.91c5.061 0 9.645-3.169 11.963-8.27.051-.11.051-.258 0-.368C23.644 9.17 19.06 6.001 14 6.001zm0 3.137c2.937 0 5.317 2.38 5.317 5.317 0 2.938-2.38 5.319-5.318 5.319-2.937 0-5.317-2.381-5.317-5.32 0-2.935 2.38-5.316 5.317-5.316zm0 1c-2.382 0-4.318 1.937-4.318 4.317 0 2.382 1.936 4.319 4.317 4.319 2.382 0 4.318-1.937 4.318-4.32 0-2.38-1.936-4.316-4.318-4.316z" transform="translate(.48)"/>
    </g>
</svg>
