<svg xmlns="http://www.w3.org/2000/svg" width="29" height="28" viewBox="0 0 29 28">
    <g fill="none" fill-rule="evenodd">
        <path d="M0 0H28V28H0z" transform="translate(.48)"/>
        <path fill="#BED730" d="M24.398 12.765L14.69 3.284C14.495 3.094 14.248 3 14 3c-.248 0-.496.095-.69.284l-9.707 9.48c-.387.377-.603.894-.603 1.432v9.779C3 24.54 3.448 25 4 25h7.5v-6.494c0-1.416 1.12-2.564 2.5-2.564s2.5 1.148 2.5 2.564V25H24c.552 0 1-.46 1-1.025v-9.78c0-.537-.216-1.054-.602-1.43" transform="translate(.48)"/>
    </g>
</svg>
