<svg xmlns="http://www.w3.org/2000/svg" width="29" height="28" viewBox="0 0 29 28">
    <g fill="none" fill-rule="evenodd">
        <path d="M0 0H28V28H0z" transform="translate(.48)"/>
        <path fill="#BED730" d="M14.039 24c-.653 0-1.268-.254-1.729-.714-.085-.095-6.688-7.437-7.358-8.108C3.693 13.923 3 12.253 3 10.477c0-1.776.693-3.446 1.952-4.702 1.193-1.19 2.655-1.769 4.469-1.769 1.39 0 2.943.791 4.621 2.353C15.106 5.351 16.862 4 18.631 4c1.733 0 3.208.632 4.51 1.931 1.256 1.254 1.95 2.923 1.95 4.698.001 1.776-.693 3.447-1.95 4.704-.118.123-4.867 5.247-7.36 7.938-.475.475-1.09.729-1.742.729" transform="translate(.48)"/>
    </g>
</svg>
