<svg xmlns="http://www.w3.org/2000/svg" width="29" height="28" viewBox="0 0 29 28">
    <g fill="none" fill-rule="evenodd">
        <path d="M0 0H28V28H0z" transform="translate(.48)"/>
        <path fill="#111" d="M18.567 4c-1.762 0-3.51 1.345-4.57 2.35-1.671-1.556-3.217-2.344-4.602-2.344-1.807 0-3.263.576-4.451 1.762C3.69 7.019 3 8.682 3 10.45c0 1.769.69 3.432 1.943 4.682.668.668 7.243 7.98 7.327 8.075.46.458 1.072.711 1.723.711.649 0 1.26-.253 1.735-.726 2.483-2.68 7.212-7.783 7.329-7.906 1.253-1.251 1.944-2.915 1.943-4.684 0-1.768-.691-3.43-1.943-4.679C21.76 4.629 20.294 4 18.567 4m0 1c1.467 0 2.67.519 3.785 1.631C23.415 7.691 24 9.102 24 10.603s-.585 2.913-1.667 3.994c-.133.139-5.268 5.681-7.311 7.887-.284.284-.641.434-1.03.434-.375 0-.73-.144-.998-.403-.42-.467-6.671-7.416-7.345-8.091C4.587 13.363 4 11.951 4 10.45c0-1.501.587-2.912 1.65-3.974 1.006-1.003 2.195-1.47 3.745-1.47 1.107 0 2.462.718 3.92 2.075.192.18.438.269.682.269.248 0 .495-.092.688-.275C15.503 6.301 17.094 5 18.567 5" transform="translate(.48)"/>
    </g>
</svg>
