<svg xmlns="http://www.w3.org/2000/svg" width="29" height="28" viewBox="0 0 29 28">
    <g fill="none" fill-rule="evenodd">
        <path d="M0 0H28V28H0z" transform="translate(.48)"/>
        <path fill="#111" d="M14 3c-.248 0-.496.095-.689.283l-9.708 9.482c-.386.376-.603.892-.603 1.43v9.78C3 24.541 3.447 25 4 25h7.5v-6.494c0-1.416 1.119-2.565 2.5-2.565s2.5 1.149 2.5 2.565V25H24c.553 0 1-.459 1-1.025v-9.78c0-.538-.217-1.054-.603-1.43l-9.708-9.482C14.496 3.095 14.248 3 14 3m0 1.007l9.699 9.473c.192.187.301.448.301.715V24h-6.5v-5.494c0-1.966-1.57-3.565-3.5-3.565s-3.5 1.599-3.5 3.565v5.49L4 23.975v-9.78c0-.267.109-.528.301-.715L14 4.007" transform="translate(.48)"/>
    </g>
</svg>
