<svg xmlns="http://www.w3.org/2000/svg" width="29" height="28" viewBox="0 0 29 28">
    <g fill="none" fill-rule="evenodd">
        <path d="M0 0H28V28H0z" transform="translate(.48)"/>
        <path fill="#BED730" d="M14 5c5.618 0 10.484 3.602 12.873 8.857.169.372.169.823 0 1.196-2.39 5.255-7.255 8.856-12.873 8.856-5.618 0-10.484-3.601-12.873-8.856-.17-.373-.17-.824 0-1.196C3.516 8.602 8.382 5 14 5zm0 4.137c-2.938 0-5.318 2.38-5.318 5.317 0 2.938 2.38 5.319 5.318 5.319 2.938 0 5.318-2.381 5.318-5.32 0-2.935-2.38-5.316-5.318-5.316zm0 1.25c2.243 0 4.068 1.825 4.068 4.067 0 2.245-1.825 4.069-4.068 4.069-2.243 0-4.068-1.824-4.068-4.07 0-2.241 1.825-4.066 4.068-4.066z" transform="translate(.48)"/>
    </g>
</svg>
