<svg xmlns="http://www.w3.org/2000/svg" width="29" height="28" viewBox="0 0 29 28">
    <g fill="none" fill-rule="evenodd">
        <path d="M0 0H28V28H0z" transform="translate(.48)"/>
        <g fill="#BED730">
            <path d="M22.586 2.56l-2.18-.317L19.434.27c-.177-.359-.69-.359-.866 0l-.974 1.975-2.18.317c-.395.058-.554.543-.266.823l1.576 1.536-.372 2.17c-.068.394.346.696.7.51L19 6.574 20.949 7.6c.354.186.768-.115.7-.51l-.372-2.17 1.577-1.536c.287-.28.128-.765-.268-.823M22 19.453v2H0v-2h22zm0-8.048v2H0v-2h22zm-9-8.047v2H0v-2h13z" transform="translate(.48) translate(3 3)"/>
        </g>
    </g>
</svg>
